<?xml version="1.0" standalone="no"?>
<!DOCTYPE svg PUBLIC "-//W3C//DTD SVG 20010904//EN"
 "http://www.w3.org/TR/2001/REC-SVG-20010904/DTD/svg10.dtd">
<svg version="1.0" xmlns="http://www.w3.org/2000/svg"
 width="72.000000pt" height="72.000000pt" viewBox="0 0 72.000000 72.000000"
 preserveAspectRatio="xMidYMid meet">
<metadata>
Created by potrace 1.14, written by Peter Selinger 2001-2017
</metadata>
<g transform="translate(0.000000,72.000000) scale(0.100000,-0.100000)"
fill="#000000" stroke="none">
<path d="M114 662 c-28 -22 -38 -42 -79 -162 -35 -99 -35 -100 -35 -272 0
-206 5 -218 87 -225 58 -6 99 14 109 53 l6 24 159 0 c137 0 159 -2 159 -15 0
-9 12 -27 26 -40 39 -36 115 -35 149 1 25 26 25 30 25 200 l0 173 -42 118
c-62 173 -41 163 -315 163 -201 0 -231 -2 -249 -18z"/>
</g>
</svg>
